<?xml version="1.0" encoding="UTF-8"?><svg id="Layer_1" xmlns="http://www.w3.org/2000/svg" xmlns:xlink="http://www.w3.org/1999/xlink" viewBox="0 0 64 64"><defs><style>.cls-1{fill:url(#linear-gradient);}.cls-2{fill:none;stroke:#001f07;stroke-linecap:round;stroke-linejoin:round;stroke-width:1.5px;}</style><linearGradient id="linear-gradient" x1="24.1" y1="35.1" x2="39.9" y2="35.1" gradientUnits="userSpaceOnUse"><stop offset="0" stop-color="#3eff6c"/><stop offset="1" stop-color="#f9ff67"/></linearGradient></defs><rect class="cls-2" x="2" y="15.6" width="60" height="39"/><rect class="cls-2" x="9.6" y="54.6" width="2.4" height="2.4"/><rect class="cls-2" x="52" y="54.6" width="2.4" height="2.4"/><rect class="cls-2" x="9.5" y="7.1" width="13.1" height="8.5"/><rect class="cls-2" x="41.4" y="7.1" width="13.1" height="8.5"/><path class="cls-1" d="M34.1,22.6l-9.9,14.3c-.2.2,0,.6.3.6h6.3c.3,0,.4.2.3.5l-3,9.3c-.1.4.4.7.6.3l11.2-14.4c.2-.2,0-.6-.3-.6h-6.3c-.2,0-.4-.2-.4-.4l1.9-9.3c0-.4-.4-.6-.7-.3Z"/></svg>