<?xml version="1.0" encoding="UTF-8"?><svg id="Layer_1" xmlns="http://www.w3.org/2000/svg" xmlns:xlink="http://www.w3.org/1999/xlink" viewBox="0 0 64 64"><defs><style>.cls-1,.cls-2{fill:none;}.cls-3{fill:url(#linear-gradient);}.cls-2{stroke:#001f07;stroke-linecap:round;stroke-linejoin:round;stroke-width:1.5px;}</style><linearGradient id="linear-gradient" x1="23.9" y1="27.8" x2="42.1" y2="27.8" gradientUnits="userSpaceOnUse"><stop offset="0" stop-color="#3eff6c"/><stop offset="1" stop-color="#f9ff67"/></linearGradient></defs><polygon class="cls-2" points="10.6 22.8 10.6 31.7 6 27.2 10.6 22.8"/><polygon class="cls-2" points="42.1 11.8 21.9 11.8 32 2 42.1 11.8"/><polygon class="cls-2" points="58 27.2 53.4 31.7 53.4 22.8 58 27.2"/><polygon class="cls-2" points="26.5 47.1 18.7 51.8 6 59.3 6 27.2 6 27.2 10.6 31.7 26.5 47.1"/><polygon class="cls-2" points="58 59.4 58 62 6 62 6 59.3 18.7 51.8 26.5 47.1 32 43.8 37.5 47.1 45.3 51.8 58 59.4"/><polygon class="cls-2" points="58 27.2 58 59.4 45.3 51.8 37.5 47.1 53.4 31.7 58 27.2"/><path class="cls-2" d="M10.6,11.8v19.9l15.9,15.4,5.5-3.3,5.5,3.3,15.9-15.4V11.8H10.6Z"/><path class="cls-3" d="M41.5,23.4c-.4-1-.9-1.9-1.6-2.7-.7-.8-1.6-1.4-2.7-1.9-1.1-.5-2.3-.7-3.8-.7s-2.8.2-4,.7c-1.2.4-2.2,1.1-3,1.9-.8.8-1.4,1.8-1.9,3-.4,1.2-.6,2.5-.6,4h0c0,1.6.2,2.9.6,4.1.4,1.2,1,2.2,1.9,3.1.8.8,1.8,1.5,3,1.9,1.2.4,2.6.6,4.2.6s1.1,0,1.6-.1c.6,0,1.1-.2,1.6-.3.5-.1.9-.3,1.2-.4l-.4-1.4c-.2,0-.5.2-.9.3-.4.1-.9.3-1.5.4-.6.1-1.1.2-1.7.2-1.3,0-2.5-.2-3.5-.5-1-.4-1.8-.9-2.5-1.6-.7-.7-1.2-1.6-1.5-2.6-.3-1-.5-2.2-.5-3.5s.2-2.4.5-3.5c.3-1,.8-1.9,1.5-2.6.7-.7,1.5-1.3,2.4-1.6,1-.4,2-.6,3.2-.6s1.9.1,2.6.4c.8.3,1.4.6,2,1,.6.4,1,1,1.4,1.6.4.6.7,1.2.9,1.9.2.7.3,1.3.3,2s0,.9,0,1.3c0,.6,0,1.1-.1,1.6-.1.7-.3,1.3-.6,1.7-.3.4-.7.5-1.2.5s-.8-.2-1.1-.5c-.2-.3-.4-.7-.4-1.1v-6.9h-1.6v.9h0c0-.2-.2-.4-.5-.6-.3-.2-.6-.3-1-.4-.4,0-.9-.1-1.4,0-.6,0-1.1.2-1.6.5-.5.3-.9.6-1.3,1s-.6.9-.9,1.5c-.2.6-.3,1.2-.3,1.9v.2c0,.7,0,1.3.3,1.9.2.6.4,1.2.8,1.7.3.5.8.8,1.3,1.1.5.3,1.1.4,1.8.4.6,0,1.1,0,1.5-.2.4-.2.7-.4,1-.6.3-.3.4-.5.6-.8h0c0,.4.3.8.6,1,.3.3.7.5,1.1.6.4.1.8.2,1.2.2.8,0,1.5-.2,1.9-.6.5-.4.8-.9,1.1-1.6.2-.6.4-1.3.5-2.1,0-.3,0-.6,0-1,0-.4,0-.9,0-1.3,0-1.1-.2-2.1-.6-3.1ZM35.3,29.7c-.2.6-.5,1-.9,1.3-.4.3-1,.4-1.7.4s-1.2-.2-1.6-.5c-.4-.4-.7-.8-.9-1.4-.2-.5-.2-1-.3-1.6,0,0,0-.2,0-.2,0-.6.1-1.2.3-1.7s.5-.9,1-1.2c.4-.3.9-.5,1.5-.5s1.1,0,1.6.3c.4.2.7.5,1,1,.2.5.3,1.2.3,2s0,.2,0,.2c0,.7-.1,1.4-.3,1.9Z"/><path class="cls-1" d="M35.6,27.5c0,0,0,.2,0,.2,0,.7-.1,1.4-.3,1.9-.2.6-.5,1-.9,1.3-.4.3-1,.4-1.7.4s-1.2-.2-1.6-.5c-.4-.4-.7-.8-.9-1.4-.2-.5-.2-1-.3-1.6,0,0,0-.2,0-.2,0-.6.1-1.2.3-1.7s.5-.9,1-1.2c.4-.3.9-.5,1.5-.5s1.1,0,1.6.3c.4.2.7.5,1,1,.2.5.3,1.2.3,2Z"/></svg>